<?xml version="1.0" encoding="UTF-8" standalone="no"?>
<svg
   xmlns="http://www.w3.org/2000/svg"
   viewBox="0 0 58.54689 50.835388"
   height="50.835388mm"
   width="58.54689mm">
  <g transform="translate(-28.934893,-18.338256)">
    <g style="display:inline;fill:#001f2f;fill-opacity:1;stroke:none;stroke-opacity:1">
      <path
         d="M58.1641751846 43.5529733565C58.1641751846 43.5529733565 50.4830413675 30.248857666 50.4830413675 30.248857666C50.4830413675 30.248857666 65.845310368 30.248858075 65.845310368 30.248858075C65.845310368 30.248858075 58.1641751846 43.5529733565 58.1641751846 43.5529733565"
         style="opacity:1;stroke-linejoin:bevel;stroke-opacity:1;fill-rule:nonzero;fill-opacity:1;stroke:none;stroke-linecap:butt;stroke-miterlimit:4;stroke-dasharray:none;stroke-width:0.0641327533563;fill:#001f2f" />
      <path
         style="opacity:1;stroke-linejoin:bevel;stroke-opacity:1;fill-rule:nonzero;fill-opacity:1;stroke:none;stroke-linecap:butt;stroke-miterlimit:4;stroke-dasharray:none;stroke-width:0.0;fill:#001f2f"
         d="M58.5684455989 43.5529738484C58.5684455989 43.5529738484 66.2495808532 30.2488589295 66.2495808532 30.2488589295C66.2495808532 30.2488589295 73.9307150495 43.5529743773 73.9307150495 43.5529743773C73.9307150495 43.5529743773 58.5684455989 43.5529738484 58.5684455989 43.5529738484" />
      <path
         d="M73.9307143814 43.9531904973C73.9307143814 43.9531904973 66.2495791272 57.2573054162 66.2495791272 57.2573054162C66.2495791272 57.2573054162 58.5684449308 43.9531899684 58.5684449308 43.9531899684C58.5684449308 43.9531899684 73.9307143814 43.9531904973 73.9307143814 43.9531904973"
         style="opacity:1;stroke-linejoin:bevel;stroke-opacity:1;fill-rule:nonzero;fill-opacity:1;stroke:none;stroke-linecap:butt;stroke-miterlimit:4;stroke-dasharray:none;stroke-width:0.0;fill:#001f2f" />
      <path
         style="opacity:1;stroke-linejoin:bevel;stroke-opacity:1;fill-rule:nonzero;fill-opacity:1;stroke:none;stroke-linecap:butt;stroke-miterlimit:4;stroke-dasharray:none;stroke-width:0.0641327533563;fill:#001f2f"
         d="M65.8453098542 57.2573052138C65.8453098542 57.2573052138 50.4830407829 57.2573044422 50.4830407829 57.2573044422C50.4830407829 57.2573044422 58.164175587 43.9531894034 58.164175587 43.9531894034C58.164175587 43.9531894034 65.8453098542 57.2573052138 65.8453098542 57.2573052138" />
      <path
         d="M50.0787696538 57.2573062327C50.0787696538 57.2573062327 42.3976358367 43.9531905422 42.3976358367 43.9531905422C42.3976358367 43.9531905422 57.7599048372 43.9531909512 57.7599048372 43.9531909512C57.7599048372 43.9531909512 50.0787696538 57.2573062327 50.0787696538 57.2573062327"
         style="opacity:1;stroke-linejoin:bevel;stroke-opacity:1;fill-rule:nonzero;fill-opacity:1;stroke:none;stroke-linecap:butt;stroke-miterlimit:4;stroke-dasharray:none;stroke-width:0.0641327533563;fill:#001f2f" />
      <path
         style="opacity:1;stroke-linejoin:bevel;stroke-opacity:1;fill-rule:nonzero;fill-opacity:1;stroke:none;stroke-linecap:butt;stroke-miterlimit:4;stroke-dasharray:none;stroke-width:0.0;fill:#001f2f"
         d="M42.3976355952 43.5529738484C42.3976355952 43.5529738484 50.0787708495 30.2488589295 50.0787708495 30.2488589295C50.0787708495 30.2488589295 57.7599050458 43.5529743773 57.7599050458 43.5529743773C57.7599050458 43.5529743773 42.3976355952 43.5529738484 42.3976355952 43.5529738484" />
    </g>
  </g>
</svg>
